<svg width="85" height="84" viewBox="0 0 85 84" fill="none" xmlns="http://www.w3.org/2000/svg">
<path opacity="0.2" d="M42.5002 83.6667C65.512 83.6667 84.1668 65.0119 84.1668 42C84.1668 18.9882 65.512 0.333374 42.5002 0.333374C19.4883 0.333374 0.833496 18.9882 0.833496 42C0.833496 65.0119 19.4883 83.6667 42.5002 83.6667Z" fill="#BBF246"/>
<path d="M37.6375 54.846C36.8097 54.8459 36.0156 54.5178 35.4292 53.9335L25.7083 44.2085C25.1563 43.6161 24.8558 42.8326 24.8701 42.023C24.8844 41.2134 25.2124 40.441 25.7849 39.8684C26.3575 39.2959 27.1299 38.9679 27.9395 38.9536C28.7491 38.9393 29.5326 39.2398 30.125 39.7918L37.625 47.2918L54.875 30.0668C55.4629 29.4811 56.2594 29.153 57.0892 29.1545C57.9191 29.1561 58.7143 29.4873 59.3 30.0752C59.8857 30.6631 60.2139 31.4595 60.2123 32.2894C60.2107 33.1192 59.8796 33.9145 59.2917 34.5002L39.85 53.946C39.2605 54.5267 38.465 54.8503 37.6375 54.846Z" fill="#BBF246"/>
</svg>
