<svg width="145" height="118" viewBox="0 0 145 118" fill="none" xmlns="http://www.w3.org/2000/svg">
<path fill-rule="evenodd" clip-rule="evenodd" d="M133.328 97.3714C132.401 97.3714 131.61 97.4754 130.954 97.6829C130.297 97.8911 129.762 98.2336 129.347 98.7089C128.933 99.1841 128.629 99.8039 128.435 100.566C128.241 101.329 128.145 102.256 128.145 103.346C128.145 104.633 128.238 105.649 128.425 106.392C128.611 107.136 128.918 107.7 129.347 108.087C129.775 108.473 130.325 108.736 130.995 108.875C131.666 109.013 132.491 109.112 133.473 109.172L138.987 109.498C139.485 109.539 139.889 109.608 140.2 109.707C140.511 109.806 140.753 109.949 140.926 110.137C141.098 110.325 141.22 110.554 141.289 110.821C141.358 111.089 141.392 111.411 141.392 111.787C141.392 112.62 141.206 113.174 140.833 113.452C140.459 113.729 139.893 113.868 139.132 113.868H133.369C132.886 113.868 132.484 113.709 132.167 113.392C131.849 113.075 131.69 112.659 131.69 112.144H128.165C128.165 113.135 128.245 113.997 128.404 114.73C128.563 115.463 128.833 116.073 129.212 116.558C129.593 117.043 130.093 117.405 130.715 117.643C131.337 117.88 132.104 117.999 133.017 117.999H140.149C141.047 117.999 141.807 117.88 142.429 117.643C143.051 117.405 143.552 117.028 143.932 116.518C144.312 116.003 144.585 115.354 144.751 114.571C144.917 113.793 145 112.847 145 111.738C145 110.376 144.896 109.295 144.689 108.502C144.481 107.715 144.174 107.106 143.766 106.68C143.358 106.253 142.847 105.966 142.232 105.818C141.617 105.669 140.902 105.575 140.086 105.535L133.721 105.183C133.473 105.164 133.245 105.139 133.037 105.109C132.83 105.08 132.654 105.01 132.509 104.901C132.364 104.792 132.25 104.624 132.167 104.396C132.084 104.168 132.042 103.846 132.042 103.43C132.042 102.642 132.202 102.122 132.519 101.874C132.837 101.627 133.238 101.503 133.721 101.503H139.506C139.865 101.503 140.159 101.532 140.387 101.592C140.615 101.651 140.795 101.75 140.926 101.889C141.057 102.028 141.147 102.206 141.196 102.424C141.244 102.642 141.268 102.909 141.268 103.227H144.979C144.979 101.24 144.544 99.7683 143.673 98.8076C142.802 97.8512 141.462 97.3711 139.651 97.3711H133.328V97.3714ZM109.302 97.3714C108.376 97.3714 107.585 97.4754 106.929 97.6829C106.272 97.8911 105.736 98.2336 105.322 98.7089C104.908 99.1841 104.603 99.8039 104.41 100.566C104.217 101.329 104.119 102.256 104.119 103.346C104.119 104.633 104.213 105.649 104.399 106.392C104.586 107.136 104.894 107.7 105.322 108.087C105.75 108.473 106.3 108.736 106.97 108.875C107.641 109.013 108.466 109.112 109.447 109.172L114.962 109.498C115.459 109.539 115.864 109.608 116.175 109.707C116.486 109.806 116.728 109.949 116.901 110.137C117.073 110.325 117.194 110.554 117.263 110.821C117.332 111.089 117.367 111.411 117.367 111.787C117.367 112.62 117.181 113.174 116.807 113.452C116.434 113.729 115.868 113.868 115.107 113.868H109.344C108.86 113.868 108.459 113.709 108.141 113.392C107.823 113.075 107.665 112.659 107.665 112.144H104.14C104.14 113.135 104.219 113.997 104.379 114.73C104.537 115.463 104.807 116.073 105.187 116.558C105.567 117.043 106.068 117.405 106.69 117.643C107.312 117.88 108.079 117.999 108.992 117.999H116.123C117.021 117.999 117.782 117.88 118.403 117.643C119.026 117.405 119.527 117.028 119.907 116.518C120.287 116.003 120.56 115.354 120.726 114.571C120.891 113.793 120.974 112.847 120.974 111.738C120.974 110.376 120.871 109.295 120.663 108.502C120.456 107.715 120.149 107.106 119.741 106.68C119.333 106.253 118.821 105.966 118.207 105.818C117.592 105.669 116.876 105.575 116.061 105.535L109.696 105.183C109.447 105.164 109.219 105.139 109.012 105.109C108.805 105.08 108.629 105.01 108.483 104.901C108.338 104.792 108.224 104.624 108.141 104.396C108.058 104.168 108.017 103.846 108.017 103.43C108.017 102.642 108.176 102.122 108.494 101.874C108.812 101.627 109.212 101.503 109.696 101.503H115.48C115.84 101.503 116.133 101.532 116.361 101.592C116.589 101.651 116.769 101.75 116.901 101.889C117.032 102.028 117.121 102.206 117.17 102.424C117.218 102.642 117.243 102.909 117.243 103.227H120.954C120.954 101.24 120.518 99.7683 119.647 98.8076C118.776 97.8512 117.436 97.3711 115.625 97.3711H109.302V97.3714ZM81.9604 97.3714V118H96.7007V113.868H85.4227V109.419H96.3482V105.298H85.4227V101.503H96.7007V97.3714H81.9604ZM56.6502 97.3714V118H60.1125V102.573L69.5868 118H73.7126V97.3714H70.2503V111.49L61.8125 97.3714H56.6502ZM49.3972 97.3714H33.8277V101.562H39.8813V118H43.3436V101.562H49.3972V97.3714ZM22.8641 118H26.3258V97.3714H22.8641V118ZM0 97.3714V118H3.46177V109.425H14.3667V105.303H3.46177V101.503H14.7194V97.3715L0 97.3714Z" fill="#BBF246"/>
<path d="M78.3573 32.0059H67.0391V43.2502H78.3573V32.0059Z" fill="#BBF246"/>
<path fill-rule="evenodd" clip-rule="evenodd" d="M99.459 24.3984L110.777 30.891V44.3697L99.459 50.8616V24.3984Z" fill="#BBF246"/>
<path fill-rule="evenodd" clip-rule="evenodd" d="M83.25 0L94.5682 6.49229V68.7667L83.25 75.2586V0Z" fill="#BBF246"/>
<path fill-rule="evenodd" clip-rule="evenodd" d="M50.834 6.49229L62.153 0V75.2586L50.834 68.7667V6.49229Z" fill="#BBF246"/>
<path fill-rule="evenodd" clip-rule="evenodd" d="M45.9433 50.8616L34.625 44.3697V30.891L45.9433 24.3984V50.8616Z" fill="#BBF246"/>
</svg>
